<svg width="184" height="35" viewBox="0 0 184 35" fill="none" xmlns="http://www.w3.org/2000/svg">
<g clip-path="url(#clip0_36_1103)">
<path d="M21.875 8.125H21.8875M8.75 2.5H21.25C24.7018 2.5 27.5 5.29822 27.5 8.75V21.25C27.5 24.7018 24.7018 27.5 21.25 27.5H8.75C5.29822 27.5 2.5 24.7018 2.5 21.25V8.75C2.5 5.29822 5.29822 2.5 8.75 2.5ZM20 14.2125C20.1543 15.2528 19.9766 16.3153 19.4922 17.2488C19.0078 18.1823 18.2414 18.9393 17.302 19.4121C16.3626 19.8849 15.2981 20.0495 14.2597 19.8824C13.2214 19.7153 12.2622 19.2251 11.5185 18.4815C10.7749 17.7378 10.2847 16.7786 10.1176 15.7403C9.9505 14.7019 10.1151 13.6374 10.5879 12.698C11.0607 11.7586 11.8177 10.9922 12.7512 10.5078C13.6847 10.0234 14.7472 9.84574 15.7875 10C16.8487 10.1574 17.8311 10.6518 18.5896 11.4104C19.3482 12.1689 19.8426 13.1513 20 14.2125Z" stroke="white" stroke-width="4" stroke-linecap="round" stroke-linejoin="round"/>
</g>
<path d="M46.5852 23.3523C45.3769 23.3523 44.3011 23.1875 43.358 22.858C42.4148 22.5322 41.6174 22.053 40.9659 21.4205C40.3144 20.7917 39.8182 20.0227 39.4773 19.1136C39.1364 18.2045 38.9659 17.1705 38.9659 16.0114C38.9659 14.8674 39.1364 13.8295 39.4773 12.8977C39.822 11.9659 40.3239 11.1667 40.983 10.5C41.642 9.82955 42.447 9.31439 43.3977 8.95455C44.3523 8.5947 45.4394 8.41477 46.6591 8.41477C47.7879 8.41477 48.7955 8.57955 49.6818 8.90909C50.572 9.23864 51.3258 9.70833 51.9432 10.3182C52.5644 10.9242 53.036 11.6458 53.358 12.483C53.6837 13.3163 53.8447 14.2386 53.8409 15.25C53.8447 15.947 53.7841 16.5871 53.6591 17.1705C53.5341 17.7538 53.3371 18.2633 53.0682 18.6989C52.803 19.1307 52.4545 19.4735 52.0227 19.7273C51.5909 19.9773 51.0682 20.1193 50.4545 20.1534C50.0152 20.1875 49.6591 20.1553 49.3864 20.0568C49.1136 19.9583 48.9053 19.8125 48.7614 19.6193C48.6212 19.4223 48.5303 19.1932 48.4886 18.9318H48.4205C48.3295 19.1591 48.1515 19.3655 47.8864 19.5511C47.6212 19.733 47.2973 19.875 46.9148 19.9773C46.536 20.0758 46.1326 20.1117 45.7045 20.0852C45.2576 20.0587 44.8333 19.9545 44.4318 19.7727C44.0341 19.5909 43.6799 19.3277 43.3693 18.983C43.0625 18.6383 42.8201 18.2121 42.642 17.7045C42.4678 17.197 42.3788 16.6098 42.375 15.9432C42.3788 15.2841 42.4716 14.7102 42.6534 14.2216C42.839 13.733 43.0833 13.322 43.3864 12.9886C43.6932 12.6553 44.0341 12.3939 44.4091 12.2045C44.7841 12.0152 45.161 11.8939 45.5398 11.8409C45.9678 11.7765 46.3731 11.7765 46.7557 11.8409C47.1383 11.9053 47.4602 12.0095 47.7216 12.1534C47.9867 12.2973 48.1515 12.4527 48.2159 12.6193H48.2955V11.983H50.0739V17.5284C50.0777 17.7898 50.1364 17.9924 50.25 18.1364C50.3636 18.2803 50.517 18.3523 50.7102 18.3523C50.9716 18.3523 51.1894 18.2367 51.3636 18.0057C51.5417 17.7746 51.6742 17.4205 51.7614 16.9432C51.8523 16.4659 51.8977 15.858 51.8977 15.1193C51.8977 14.4072 51.803 13.7822 51.6136 13.2443C51.428 12.7027 51.1667 12.2424 50.8295 11.8636C50.4962 11.4811 50.108 11.1705 49.6648 10.9318C49.2216 10.6932 48.7405 10.5189 48.2216 10.4091C47.7064 10.2992 47.1761 10.2443 46.6307 10.2443C45.6875 10.2443 44.8636 10.3883 44.1591 10.6761C43.4545 10.9602 42.8674 11.3598 42.3977 11.875C41.928 12.3902 41.5758 12.9943 41.3409 13.6875C41.1098 14.3769 40.9924 15.1288 40.9886 15.9432C40.9924 16.8409 41.1174 17.6364 41.3636 18.3295C41.6136 19.0189 41.9811 19.5985 42.4659 20.0682C42.9508 20.5379 43.5492 20.8939 44.2614 21.1364C44.9735 21.3788 45.7917 21.5 46.7159 21.5C47.1515 21.5 47.5777 21.4678 47.9943 21.4034C48.411 21.3428 48.7879 21.267 49.125 21.1761C49.4621 21.089 49.733 21.0038 49.9375 20.9205L50.5 22.5682C50.2614 22.7045 49.9375 22.8314 49.5284 22.9489C49.1231 23.0701 48.6648 23.1667 48.1534 23.2386C47.6458 23.3144 47.1231 23.3523 46.5852 23.3523ZM46.3239 18.2159C46.786 18.2159 47.1534 18.1269 47.4261 17.9489C47.7027 17.7708 47.8996 17.5076 48.017 17.1591C48.1383 16.8068 48.1951 16.3731 48.1875 15.858C48.1837 15.4034 48.125 15.0189 48.0114 14.7045C47.9015 14.3864 47.7102 14.1458 47.4375 13.983C47.1686 13.8163 46.7936 13.733 46.3125 13.733C45.892 13.733 45.5341 13.822 45.2386 14C44.947 14.178 44.7235 14.428 44.5682 14.75C44.4167 15.0682 44.339 15.4432 44.3352 15.875C44.339 16.2765 44.4034 16.6572 44.5284 17.017C44.6534 17.3731 44.8598 17.6629 45.1477 17.8864C45.4356 18.1061 45.8277 18.2159 46.3239 18.2159ZM62.7116 13.7614L60.4957 13.8977C60.4579 13.7083 60.3764 13.5379 60.2514 13.3864C60.1264 13.2311 59.9616 13.108 59.7571 13.017C59.5563 12.9223 59.3158 12.875 59.0355 12.875C58.6605 12.875 58.3442 12.9545 58.0866 13.1136C57.8291 13.2689 57.7003 13.4773 57.7003 13.7386C57.7003 13.947 57.7836 14.1231 57.9503 14.267C58.117 14.411 58.4029 14.5265 58.8082 14.6136L60.3878 14.9318C61.2363 15.1061 61.8688 15.3864 62.2855 15.7727C62.7022 16.1591 62.9105 16.6667 62.9105 17.2955C62.9105 17.8674 62.742 18.3693 62.4048 18.8011C62.0715 19.233 61.6132 19.5701 61.0298 19.8125C60.4503 20.0511 59.7817 20.1705 59.0241 20.1705C57.8688 20.1705 56.9484 19.9299 56.2628 19.4489C55.581 18.964 55.1813 18.3049 55.0639 17.4716L57.4446 17.3466C57.5166 17.6989 57.6908 17.9678 57.9673 18.1534C58.2438 18.3352 58.598 18.4261 59.0298 18.4261C59.4541 18.4261 59.795 18.3447 60.0526 18.1818C60.3139 18.0152 60.4465 17.8011 60.4503 17.5398C60.4465 17.3201 60.3537 17.1402 60.1719 17C59.9901 16.8561 59.7098 16.7462 59.331 16.6705L57.8196 16.3693C56.9673 16.1989 56.3329 15.9034 55.9162 15.483C55.5033 15.0625 55.2969 14.5265 55.2969 13.875C55.2969 13.3144 55.4484 12.8314 55.7514 12.4261C56.0582 12.0208 56.4882 11.7083 57.0412 11.4886C57.598 11.2689 58.2495 11.1591 58.9957 11.1591C60.098 11.1591 60.9654 11.392 61.598 11.858C62.2344 12.3239 62.6056 12.9583 62.7116 13.7614ZM67.6506 20.142C66.9877 20.142 66.3873 19.9716 65.8494 19.6307C65.3153 19.286 64.8911 18.7803 64.5767 18.1136C64.2661 17.4432 64.1108 16.6212 64.1108 15.6477C64.1108 14.6477 64.2718 13.8163 64.5938 13.1534C64.9157 12.4867 65.3438 11.9886 65.8778 11.6591C66.4157 11.3258 67.0047 11.1591 67.6449 11.1591C68.1335 11.1591 68.5407 11.2424 68.8665 11.4091C69.196 11.572 69.4612 11.7765 69.6619 12.0227C69.8665 12.2652 70.0218 12.5038 70.1278 12.7386H70.2017V8.36364H72.6165V20H70.2301V18.6023H70.1278C70.0142 18.8447 69.8532 19.0852 69.6449 19.3239C69.4403 19.5587 69.1733 19.7538 68.8438 19.9091C68.518 20.0644 68.1203 20.142 67.6506 20.142ZM68.4176 18.2159C68.8078 18.2159 69.1373 18.1098 69.4062 17.8977C69.679 17.6818 69.8873 17.3807 70.0312 16.9943C70.179 16.608 70.2528 16.1553 70.2528 15.6364C70.2528 15.1174 70.1809 14.6667 70.0369 14.2841C69.893 13.9015 69.6847 13.6061 69.4119 13.3977C69.1392 13.1894 68.8078 13.0852 68.4176 13.0852C68.0199 13.0852 67.6847 13.1932 67.4119 13.4091C67.1392 13.625 66.9328 13.9242 66.7926 14.3068C66.6525 14.6894 66.5824 15.1326 66.5824 15.6364C66.5824 16.1439 66.6525 16.5928 66.7926 16.983C66.9366 17.3693 67.143 17.6723 67.4119 17.892C67.6847 18.108 68.0199 18.2159 68.4176 18.2159ZM74.6065 20V11.2727H76.9134V12.8125H77.0156C77.1974 12.3011 77.5005 11.8977 77.9247 11.6023C78.349 11.3068 78.8565 11.1591 79.4474 11.1591C80.0459 11.1591 80.5554 11.3087 80.9759 11.608C81.3963 11.9034 81.6766 12.3049 81.8168 12.8125H81.9077C82.0857 12.3125 82.4077 11.9129 82.8736 11.6136C83.3433 11.3106 83.8982 11.1591 84.5384 11.1591C85.3527 11.1591 86.0137 11.4186 86.5213 11.9375C87.0327 12.4527 87.2884 13.1837 87.2884 14.1307V20H84.8736V14.608C84.8736 14.1231 84.7448 13.7595 84.4872 13.517C84.2296 13.2746 83.9077 13.1534 83.5213 13.1534C83.0819 13.1534 82.7391 13.2936 82.4929 13.5739C82.2467 13.8504 82.1236 14.2159 82.1236 14.6705V20H79.777V14.5568C79.777 14.1288 79.6539 13.7879 79.4077 13.5341C79.1652 13.2803 78.8452 13.1534 78.4474 13.1534C78.1785 13.1534 77.9361 13.2216 77.7202 13.358C77.508 13.4905 77.3395 13.678 77.2145 13.9205C77.0895 14.1591 77.027 14.4394 77.027 14.7614V20H74.6065ZM95.8651 20V21.8352H88.223V20H95.8651ZM97.5597 23.2727V11.2727H99.946V12.7386H100.054C100.16 12.5038 100.313 12.2652 100.514 12.0227C100.719 11.7765 100.984 11.572 101.31 11.4091C101.639 11.2424 102.048 11.1591 102.537 11.1591C103.173 11.1591 103.76 11.3258 104.298 11.6591C104.836 11.9886 105.266 12.4867 105.588 13.1534C105.91 13.8163 106.071 14.6477 106.071 15.6477C106.071 16.6212 105.914 17.4432 105.599 18.1136C105.289 18.7803 104.865 19.286 104.327 19.6307C103.793 19.9716 103.194 20.142 102.531 20.142C102.062 20.142 101.662 20.0644 101.332 19.9091C101.007 19.7538 100.74 19.5587 100.531 19.3239C100.323 19.0852 100.164 18.8447 100.054 18.6023H99.9801V23.2727H97.5597ZM99.929 15.6364C99.929 16.1553 100.001 16.608 100.145 16.9943C100.289 17.3807 100.497 17.6818 100.77 17.8977C101.043 18.1098 101.374 18.2159 101.764 18.2159C102.158 18.2159 102.491 18.108 102.764 17.892C103.037 17.6723 103.243 17.3693 103.384 16.983C103.527 16.5928 103.599 16.1439 103.599 15.6364C103.599 15.1326 103.529 14.6894 103.389 14.3068C103.249 13.9242 103.043 13.625 102.77 13.4091C102.497 13.1932 102.162 13.0852 101.764 13.0852C101.37 13.0852 101.037 13.1894 100.764 13.3977C100.495 13.6061 100.289 13.9015 100.145 14.2841C100.001 14.6667 99.929 15.1174 99.929 15.6364ZM112.327 11.2727V13.0909H107.071V11.2727H112.327ZM108.264 9.18182H110.685V17.3182C110.685 17.5417 110.719 17.7159 110.787 17.8409C110.855 17.9621 110.95 18.0473 111.071 18.0966C111.196 18.1458 111.34 18.1705 111.503 18.1705C111.616 18.1705 111.73 18.161 111.844 18.142C111.957 18.1193 112.045 18.1023 112.105 18.0909L112.486 19.892C112.365 19.9299 112.194 19.9735 111.974 20.0227C111.755 20.0758 111.488 20.108 111.173 20.1193C110.59 20.142 110.079 20.0644 109.639 19.8864C109.204 19.7083 108.865 19.4318 108.622 19.0568C108.38 18.6818 108.26 18.2083 108.264 17.6364V9.18182ZM113.903 23.2727V11.2727H116.29V12.7386H116.398C116.504 12.5038 116.657 12.2652 116.858 12.0227C117.063 11.7765 117.328 11.572 117.653 11.4091C117.983 11.2424 118.392 11.1591 118.881 11.1591C119.517 11.1591 120.104 11.3258 120.642 11.6591C121.18 11.9886 121.61 12.4867 121.932 13.1534C122.254 13.8163 122.415 14.6477 122.415 15.6477C122.415 16.6212 122.258 17.4432 121.943 18.1136C121.633 18.7803 121.208 19.286 120.67 19.6307C120.136 19.9716 119.538 20.142 118.875 20.142C118.405 20.142 118.006 20.0644 117.676 19.9091C117.35 19.7538 117.083 19.5587 116.875 19.3239C116.667 19.0852 116.508 18.8447 116.398 18.6023H116.324V23.2727H113.903ZM116.273 15.6364C116.273 16.1553 116.345 16.608 116.489 16.9943C116.633 17.3807 116.841 17.6818 117.114 17.8977C117.386 18.1098 117.718 18.2159 118.108 18.2159C118.502 18.2159 118.835 18.108 119.108 17.892C119.381 17.6723 119.587 17.3693 119.727 16.983C119.871 16.5928 119.943 16.1439 119.943 15.6364C119.943 15.1326 119.873 14.6894 119.733 14.3068C119.593 13.9242 119.386 13.625 119.114 13.4091C118.841 13.1932 118.506 13.0852 118.108 13.0852C117.714 13.0852 117.381 13.1894 117.108 13.3977C116.839 13.6061 116.633 13.9015 116.489 14.2841C116.345 14.6667 116.273 15.1174 116.273 15.6364ZM126.449 14.9545V20H124.028V11.2727H126.335V12.8125H126.438C126.631 12.3049 126.955 11.9034 127.409 11.608C127.864 11.3087 128.415 11.1591 129.062 11.1591C129.669 11.1591 130.197 11.2917 130.648 11.5568C131.098 11.822 131.449 12.2008 131.699 12.6932C131.949 13.1818 132.074 13.7652 132.074 14.4432V20H129.653V14.875C129.657 14.3409 129.521 13.9242 129.244 13.625C128.968 13.322 128.587 13.1705 128.102 13.1705C127.777 13.1705 127.489 13.2405 127.239 13.3807C126.992 13.5208 126.799 13.7254 126.659 13.9943C126.523 14.2595 126.453 14.5795 126.449 14.9545ZM133.783 17.9545V16.017L138.641 8.36364H140.311V11.0455H139.322L136.26 15.892V15.983H143.163V17.9545H133.783ZM139.368 20V17.3636L139.413 16.5057V8.36364H141.72V20H139.368ZM144.825 20V11.2727H147.172V12.7955H147.263C147.422 12.2538 147.689 11.8447 148.064 11.5682C148.439 11.2879 148.871 11.1477 149.359 11.1477C149.481 11.1477 149.611 11.1553 149.751 11.1705C149.892 11.1856 150.015 11.2064 150.121 11.233V13.3807C150.007 13.3466 149.85 13.3163 149.649 13.2898C149.448 13.2633 149.265 13.25 149.098 13.25C148.742 13.25 148.424 13.3277 148.143 13.483C147.867 13.6345 147.647 13.8466 147.484 14.1193C147.325 14.392 147.246 14.7064 147.246 15.0625V20H144.825ZM154.943 20.1705C154.045 20.1705 153.273 19.9886 152.625 19.625C151.981 19.2576 151.485 18.7386 151.136 18.0682C150.788 17.3939 150.614 16.5966 150.614 15.6761C150.614 14.7784 150.788 13.9905 151.136 13.3125C151.485 12.6345 151.975 12.1061 152.608 11.7273C153.244 11.3485 153.991 11.1591 154.847 11.1591C155.422 11.1591 155.958 11.2519 156.455 11.4375C156.955 11.6193 157.39 11.8939 157.761 12.2614C158.136 12.6288 158.428 13.0909 158.636 13.6477C158.845 14.2008 158.949 14.8485 158.949 15.5909V16.2557H151.58V14.7557H156.67C156.67 14.4072 156.595 14.0985 156.443 13.8295C156.292 13.5606 156.081 13.3504 155.812 13.1989C155.547 13.0436 155.239 12.9659 154.886 12.9659C154.519 12.9659 154.193 13.0511 153.909 13.2216C153.629 13.3883 153.409 13.6136 153.25 13.8977C153.091 14.178 153.009 14.4905 153.006 14.8352V16.2614C153.006 16.6932 153.085 17.0663 153.244 17.3807C153.407 17.6951 153.636 17.9375 153.932 18.108C154.227 18.2784 154.578 18.3636 154.983 18.3636C155.252 18.3636 155.498 18.3258 155.722 18.25C155.945 18.1742 156.136 18.0606 156.295 17.9091C156.455 17.7576 156.576 17.572 156.659 17.3523L158.898 17.5C158.784 18.0379 158.551 18.5076 158.199 18.9091C157.85 19.3068 157.4 19.6174 156.847 19.8409C156.297 20.0606 155.663 20.1705 154.943 20.1705ZM164.46 23.4545C163.676 23.4545 163.004 23.3466 162.443 23.1307C161.886 22.9186 161.443 22.6288 161.114 22.2614C160.784 21.8939 160.57 21.4811 160.472 21.0227L162.71 20.7216C162.778 20.8958 162.886 21.0587 163.034 21.2102C163.182 21.3617 163.377 21.483 163.619 21.5739C163.866 21.6686 164.165 21.7159 164.517 21.7159C165.044 21.7159 165.477 21.5871 165.818 21.3295C166.163 21.0758 166.335 20.6496 166.335 20.0511V18.4545H166.233C166.127 18.697 165.968 18.9261 165.756 19.142C165.544 19.358 165.271 19.5341 164.938 19.6705C164.604 19.8068 164.206 19.875 163.744 19.875C163.089 19.875 162.492 19.7235 161.955 19.4205C161.42 19.1136 160.994 18.6458 160.676 18.017C160.362 17.3845 160.205 16.5852 160.205 15.6193C160.205 14.6307 160.366 13.8049 160.688 13.142C161.009 12.4792 161.438 11.983 161.972 11.6534C162.509 11.3239 163.098 11.1591 163.739 11.1591C164.227 11.1591 164.636 11.2424 164.966 11.4091C165.295 11.572 165.561 11.7765 165.761 12.0227C165.966 12.2652 166.123 12.5038 166.233 12.7386H166.324V11.2727H168.727V20.0852C168.727 20.8277 168.545 21.4489 168.182 21.9489C167.818 22.4489 167.314 22.8239 166.67 23.0739C166.03 23.3277 165.294 23.4545 164.46 23.4545ZM164.511 18.0568C164.902 18.0568 165.231 17.9602 165.5 17.767C165.773 17.5701 165.981 17.2898 166.125 16.9261C166.273 16.5587 166.347 16.1193 166.347 15.608C166.347 15.0966 166.275 14.6534 166.131 14.2784C165.987 13.8996 165.778 13.6061 165.506 13.3977C165.233 13.1894 164.902 13.0852 164.511 13.0852C164.114 13.0852 163.778 13.1932 163.506 13.4091C163.233 13.6212 163.027 13.9167 162.886 14.2955C162.746 14.6742 162.676 15.1117 162.676 15.608C162.676 16.1117 162.746 16.5473 162.886 16.9148C163.03 17.2784 163.237 17.5606 163.506 17.7614C163.778 17.9583 164.114 18.0568 164.511 18.0568ZM174.881 20.1591C174.078 20.1591 173.362 20.0114 172.733 19.7159C172.108 19.4205 171.612 19.0133 171.244 18.4943C170.877 17.9754 170.686 17.3807 170.67 16.7102H173.057C173.083 17.161 173.273 17.5265 173.625 17.8068C173.977 18.0871 174.396 18.2273 174.881 18.2273C175.267 18.2273 175.608 18.142 175.903 17.9716C176.203 17.7973 176.436 17.5568 176.602 17.25C176.773 16.9394 176.858 16.5833 176.858 16.1818C176.858 15.7727 176.771 15.4129 176.597 15.1023C176.426 14.7917 176.189 14.5492 175.886 14.375C175.583 14.2008 175.237 14.1117 174.847 14.108C174.506 14.108 174.174 14.178 173.852 14.3182C173.534 14.4583 173.286 14.6496 173.108 14.892L170.92 14.5L171.472 8.36364H178.585V10.375H173.5L173.199 13.2898H173.267C173.472 13.0019 173.78 12.7633 174.193 12.5739C174.606 12.3845 175.068 12.2898 175.58 12.2898C176.28 12.2898 176.905 12.4545 177.455 12.7841C178.004 13.1136 178.438 13.5663 178.756 14.142C179.074 14.714 179.231 15.3731 179.227 16.1193C179.231 16.9034 179.049 17.6004 178.682 18.2102C178.318 18.8163 177.809 19.2936 177.153 19.642C176.502 19.9867 175.744 20.1591 174.881 20.1591Z" fill="white"/>
<defs>
<clipPath id="clip0_36_1103">
<rect width="30" height="30" fill="white"/>
</clipPath>
</defs>
</svg>
