<svg width="172" height="33" viewBox="0 0 172 33" fill="none" xmlns="http://www.w3.org/2000/svg">
<path d="M38.6875 18L36.3125 9.27273H38.7614L40.1136 15.1364H40.1932L41.6023 9.27273H44.0057L45.4375 15.1023H45.5114L46.8409 9.27273H49.2841L46.9148 18H44.3523L42.8523 12.5114H42.7443L41.2443 18H38.6875ZM52.2969 18L49.9219 9.27273H52.3707L53.723 15.1364H53.8026L55.2116 9.27273H57.6151L59.0469 15.1023H59.1207L60.4503 9.27273H62.8935L60.5241 18H57.9616L56.4616 12.5114H56.3537L54.8537 18H52.2969ZM65.9062 18L63.5312 9.27273H65.9801L67.3324 15.1364H67.4119L68.821 9.27273H71.2244L72.6562 15.1023H72.7301L74.0597 9.27273H76.5028L74.1335 18H71.571L70.071 12.5114H69.9631L68.4631 18H65.9062ZM78.0213 18.1477C77.6463 18.1477 77.3243 18.0152 77.0554 17.75C76.7902 17.4811 76.6577 17.1591 76.6577 16.7841C76.6577 16.4129 76.7902 16.0947 77.0554 15.8295C77.3243 15.5644 77.6463 15.4318 78.0213 15.4318C78.3849 15.4318 78.7031 15.5644 78.9759 15.8295C79.2486 16.0947 79.3849 16.4129 79.3849 16.7841C79.3849 17.0341 79.3205 17.2633 79.1918 17.4716C79.0668 17.6761 78.902 17.8409 78.6974 17.9659C78.4929 18.0871 78.2675 18.1477 78.0213 18.1477ZM81.3722 21.2727V9.27273H83.7585V10.7386H83.8665C83.9725 10.5038 84.1259 10.2652 84.3267 10.0227C84.5313 9.77652 84.7964 9.57197 85.1222 9.40909C85.4517 9.24242 85.8608 9.15909 86.3494 9.15909C86.9858 9.15909 87.5729 9.32576 88.1108 9.65909C88.6487 9.98864 89.0786 10.4867 89.4006 11.1534C89.7225 11.8163 89.8835 12.6477 89.8835 13.6477C89.8835 14.6212 89.7263 15.4432 89.4119 16.1136C89.1013 16.7803 88.6771 17.286 88.1392 17.6307C87.6051 17.9716 87.0066 18.142 86.3438 18.142C85.8741 18.142 85.4744 18.0644 85.1449 17.9091C84.8191 17.7538 84.5521 17.5587 84.3438 17.3239C84.1354 17.0852 83.9763 16.8447 83.8665 16.6023H83.7926V21.2727H81.3722ZM83.7415 13.6364C83.7415 14.1553 83.8134 14.608 83.9574 14.9943C84.1013 15.3807 84.3097 15.6818 84.5824 15.8977C84.8551 16.1098 85.1866 16.2159 85.5767 16.2159C85.9706 16.2159 86.304 16.108 86.5767 15.892C86.8494 15.6723 87.0559 15.3693 87.196 14.983C87.34 14.5928 87.4119 14.1439 87.4119 13.6364C87.4119 13.1326 87.3419 12.6894 87.2017 12.3068C87.0616 11.9242 86.8551 11.625 86.5824 11.4091C86.3097 11.1932 85.9744 11.0852 85.5767 11.0852C85.1828 11.0852 84.8494 11.1894 84.5767 11.3977C84.3078 11.6061 84.1013 11.9015 83.9574 12.2841C83.8134 12.6667 83.7415 13.1174 83.7415 13.6364ZM96.1392 9.27273V11.0909H90.8835V9.27273H96.1392ZM92.0767 7.18182H94.4972V15.3182C94.4972 15.5417 94.5313 15.7159 94.5994 15.8409C94.6676 15.9621 94.7623 16.0473 94.8835 16.0966C95.0085 16.1458 95.1525 16.1705 95.3153 16.1705C95.429 16.1705 95.5426 16.161 95.6562 16.142C95.7699 16.1193 95.857 16.1023 95.9176 16.0909L96.2983 17.892C96.1771 17.9299 96.0066 17.9735 95.7869 18.0227C95.5672 18.0758 95.3002 18.108 94.9858 18.1193C94.4025 18.142 93.8911 18.0644 93.4517 17.8864C93.0161 17.7083 92.6771 17.4318 92.4347 17.0568C92.1922 16.6818 92.0729 16.2083 92.0767 15.6364V7.18182ZM97.7159 21.2727V9.27273H100.102V10.7386H100.21C100.316 10.5038 100.47 10.2652 100.67 10.0227C100.875 9.77652 101.14 9.57197 101.466 9.40909C101.795 9.24242 102.205 9.15909 102.693 9.15909C103.33 9.15909 103.917 9.32576 104.455 9.65909C104.992 9.98864 105.422 10.4867 105.744 11.1534C106.066 11.8163 106.227 12.6477 106.227 13.6477C106.227 14.6212 106.07 15.4432 105.756 16.1136C105.445 16.7803 105.021 17.286 104.483 17.6307C103.949 17.9716 103.35 18.142 102.688 18.142C102.218 18.142 101.818 18.0644 101.489 17.9091C101.163 17.7538 100.896 17.5587 100.688 17.3239C100.479 17.0852 100.32 16.8447 100.21 16.6023H100.136V21.2727H97.7159ZM100.085 13.6364C100.085 14.1553 100.157 14.608 100.301 14.9943C100.445 15.3807 100.653 15.6818 100.926 15.8977C101.199 16.1098 101.53 16.2159 101.92 16.2159C102.314 16.2159 102.648 16.108 102.92 15.892C103.193 15.6723 103.4 15.3693 103.54 14.983C103.684 14.5928 103.756 14.1439 103.756 13.6364C103.756 13.1326 103.686 12.6894 103.545 12.3068C103.405 11.9242 103.199 11.625 102.926 11.4091C102.653 11.1932 102.318 11.0852 101.92 11.0852C101.527 11.0852 101.193 11.1894 100.92 11.3977C100.652 11.6061 100.445 11.9015 100.301 12.2841C100.157 12.6667 100.085 13.1174 100.085 13.6364ZM110.261 12.9545V18H107.841V9.27273H110.148V10.8125H110.25C110.443 10.3049 110.767 9.90341 111.222 9.60795C111.676 9.30871 112.227 9.15909 112.875 9.15909C113.481 9.15909 114.009 9.29167 114.46 9.55682C114.911 9.82197 115.261 10.2008 115.511 10.6932C115.761 11.1818 115.886 11.7652 115.886 12.4432V18H113.466V12.875C113.47 12.3409 113.333 11.9242 113.057 11.625C112.78 11.322 112.4 11.1705 111.915 11.1705C111.589 11.1705 111.301 11.2405 111.051 11.3807C110.805 11.5208 110.612 11.7254 110.472 11.9943C110.335 12.2595 110.265 12.5795 110.261 12.9545ZM117.595 15.9545V14.017L122.453 6.36364H124.124V9.04545H123.135L120.072 13.892V13.983H126.976V15.9545H117.595ZM123.18 18V15.3636L123.226 14.5057V6.36364H125.533V18H123.18ZM129.834 18.1477C129.459 18.1477 129.137 18.0152 128.868 17.75C128.603 17.4811 128.47 17.1591 128.47 16.7841C128.47 16.4129 128.603 16.0947 128.868 15.8295C129.137 15.5644 129.459 15.4318 129.834 15.4318C130.197 15.4318 130.516 15.5644 130.788 15.8295C131.061 16.0947 131.197 16.4129 131.197 16.7841C131.197 17.0341 131.133 17.2633 131.004 17.4716C130.879 17.6761 130.714 17.8409 130.51 17.9659C130.305 18.0871 130.08 18.1477 129.834 18.1477ZM137.128 18.1705C136.234 18.1705 135.465 17.9811 134.821 17.6023C134.181 17.2197 133.688 16.6894 133.344 16.0114C133.003 15.3333 132.832 14.553 132.832 13.6705C132.832 12.7765 133.005 11.9924 133.349 11.3182C133.698 10.6402 134.192 10.1117 134.832 9.73295C135.473 9.35038 136.234 9.15909 137.116 9.15909C137.878 9.15909 138.545 9.29735 139.116 9.57386C139.688 9.85038 140.141 10.2386 140.474 10.7386C140.808 11.2386 140.991 11.8258 141.026 12.5H138.741C138.677 12.0644 138.507 11.714 138.23 11.4489C137.957 11.1799 137.599 11.0455 137.156 11.0455C136.781 11.0455 136.454 11.1477 136.173 11.3523C135.897 11.553 135.681 11.8466 135.526 12.233C135.37 12.6193 135.293 13.0871 135.293 13.6364C135.293 14.1932 135.368 14.6667 135.52 15.0568C135.675 15.447 135.893 15.7443 136.173 15.9489C136.454 16.1534 136.781 16.2557 137.156 16.2557C137.433 16.2557 137.681 16.1989 137.901 16.0852C138.124 15.9716 138.308 15.8068 138.452 15.5909C138.599 15.3712 138.696 15.108 138.741 14.8011H141.026C140.988 15.4678 140.806 16.0549 140.48 16.5625C140.158 17.0663 139.713 17.4602 139.145 17.7443C138.577 18.0284 137.904 18.1705 137.128 18.1705ZM146.518 18.1705C145.636 18.1705 144.873 17.983 144.229 17.608C143.589 17.2292 143.094 16.7027 142.746 16.0284C142.397 15.3504 142.223 14.5644 142.223 13.6705C142.223 12.7689 142.397 11.9811 142.746 11.3068C143.094 10.6288 143.589 10.1023 144.229 9.72727C144.873 9.34848 145.636 9.15909 146.518 9.15909C147.401 9.15909 148.162 9.34848 148.803 9.72727C149.446 10.1023 149.943 10.6288 150.291 11.3068C150.64 11.9811 150.814 12.7689 150.814 13.6705C150.814 14.5644 150.64 15.3504 150.291 16.0284C149.943 16.7027 149.446 17.2292 148.803 17.608C148.162 17.983 147.401 18.1705 146.518 18.1705ZM146.53 16.2955C146.931 16.2955 147.267 16.1818 147.536 15.9545C147.804 15.7235 148.007 15.4091 148.143 15.0114C148.284 14.6136 148.354 14.161 148.354 13.6534C148.354 13.1458 148.284 12.6932 148.143 12.2955C148.007 11.8977 147.804 11.5833 147.536 11.3523C147.267 11.1212 146.931 11.0057 146.53 11.0057C146.125 11.0057 145.784 11.1212 145.507 11.3523C145.234 11.5833 145.028 11.8977 144.888 12.2955C144.751 12.6932 144.683 13.1458 144.683 13.6534C144.683 14.161 144.751 14.6136 144.888 15.0114C145.028 15.4091 145.234 15.7235 145.507 15.9545C145.784 16.1818 146.125 16.2955 146.53 16.2955ZM153.803 18.1477C153.428 18.1477 153.106 18.0152 152.837 17.75C152.571 17.4811 152.439 17.1591 152.439 16.7841C152.439 16.4129 152.571 16.0947 152.837 15.8295C153.106 15.5644 153.428 15.4318 153.803 15.4318C154.166 15.4318 154.484 15.5644 154.757 15.8295C155.03 16.0947 155.166 16.4129 155.166 16.7841C155.166 17.0341 155.102 17.2633 154.973 17.4716C154.848 17.6761 154.683 17.8409 154.479 17.9659C154.274 18.0871 154.049 18.1477 153.803 18.1477ZM157.153 18V9.27273H159.574V18H157.153ZM158.369 8.14773C158.009 8.14773 157.701 8.02841 157.443 7.78977C157.189 7.54735 157.062 7.25758 157.062 6.92045C157.062 6.58712 157.189 6.30114 157.443 6.0625C157.701 5.82008 158.009 5.69886 158.369 5.69886C158.729 5.69886 159.036 5.82008 159.29 6.0625C159.547 6.30114 159.676 6.58712 159.676 6.92045C159.676 7.25758 159.547 7.54735 159.29 7.78977C159.036 8.02841 158.729 8.14773 158.369 8.14773ZM164.729 18.142C164.066 18.142 163.465 17.9716 162.928 17.6307C162.393 17.286 161.969 16.7803 161.655 16.1136C161.344 15.4432 161.189 14.6212 161.189 13.6477C161.189 12.6477 161.35 11.8163 161.672 11.1534C161.994 10.4867 162.422 9.98864 162.956 9.65909C163.494 9.32576 164.083 9.15909 164.723 9.15909C165.212 9.15909 165.619 9.24242 165.945 9.40909C166.274 9.57197 166.539 9.77652 166.74 10.0227C166.945 10.2652 167.1 10.5038 167.206 10.7386H167.28V6.36364H169.695V18H167.308V16.6023H167.206C167.092 16.8447 166.931 17.0852 166.723 17.3239C166.518 17.5587 166.251 17.7538 165.922 17.9091C165.596 18.0644 165.198 18.142 164.729 18.142ZM165.496 16.2159C165.886 16.2159 166.215 16.1098 166.484 15.8977C166.757 15.6818 166.965 15.3807 167.109 14.9943C167.257 14.608 167.331 14.1553 167.331 13.6364C167.331 13.1174 167.259 12.6667 167.115 12.2841C166.971 11.9015 166.763 11.6061 166.49 11.3977C166.217 11.1894 165.886 11.0852 165.496 11.0852C165.098 11.0852 164.763 11.1932 164.49 11.4091C164.217 11.625 164.011 11.9242 163.871 12.3068C163.731 12.6894 163.661 13.1326 163.661 13.6364C163.661 14.1439 163.731 14.5928 163.871 14.983C164.015 15.3693 164.221 15.6723 164.49 15.892C164.763 16.108 165.098 16.2159 165.496 16.2159Z" fill="white"/>
<path fill-rule="evenodd" clip-rule="evenodd" d="M12.5 0C19.4033 0 25.0002 5.59644 25.0002 12.5C25.0002 19.4036 19.4033 25 12.5 25C5.59644 25 0 19.4036 0 12.5C0 5.59644 5.59644 0 12.5 0ZM12.0482 0.935369C10.6221 1.13606 9.26425 2.28193 8.21019 4.19838C7.90444 4.75427 7.62856 5.36841 7.38819 6.03153C8.82144 5.67136 10.3959 5.45901 12.0482 5.42617V0.935369ZM6.33169 6.33175C6.63069 5.39349 6.99637 4.53025 7.41844 3.76291C7.94094 2.81287 8.56106 1.99247 9.25975 1.36236C5.46044 2.46577 2.46575 5.46049 1.36231 9.25981C1.99244 8.56112 2.81281 7.941 3.76287 7.4185C4.53025 6.99644 5.39344 6.63069 6.33169 6.33175ZM6.0315 7.38819C5.67131 8.82144 5.459 10.3959 5.42613 12.0482H0.935311C1.136 10.6221 2.28187 9.26425 4.19837 8.21025C4.75425 7.9045 5.36837 7.62863 6.0315 7.38819ZM6.32994 12.0482C6.36725 10.245 6.62687 8.55213 7.05637 7.05638C8.55212 6.62688 10.245 6.36725 12.0482 6.32994V8.28175C11.3755 10.0039 10.0035 11.3757 8.28131 12.0482H6.32994ZM5.42613 12.9518H0.935311C1.136 14.3779 2.28187 15.7357 4.19837 16.7897C4.75425 17.0955 5.36837 17.3714 6.0315 17.6118C5.67131 16.1786 5.459 14.6041 5.42613 12.9518ZM7.05637 17.9436C6.62687 16.4479 6.36725 14.755 6.32994 12.9518H8.28131C10.0035 13.6243 11.3755 14.9961 12.0482 16.7183V18.6701C10.245 18.6328 8.55212 18.3731 7.05637 17.9436ZM6.33169 18.6682C5.39344 18.3693 4.53025 18.0036 3.76287 17.5815C2.81281 17.059 1.99244 16.4389 1.36231 15.7402C2.46575 19.5395 5.46044 22.5343 9.25975 23.6376C8.56106 23.0075 7.94094 22.1871 7.41844 21.2371C6.99637 20.4698 6.63069 19.6065 6.33169 18.6682ZM12.0482 24.0646C10.6221 23.8639 9.26425 22.7181 8.21019 20.8016C7.90444 20.2458 7.62856 19.6316 7.38819 18.9685C8.82144 19.3286 10.3959 19.541 12.0482 19.5738V24.0646ZM15.7402 23.6376C16.4389 23.0075 17.0589 22.1871 17.5814 21.2371C18.0033 20.4698 18.3696 19.6065 18.6683 18.6682C19.6064 18.3693 20.4696 18.0036 21.2371 17.5815C22.1871 17.059 23.0077 16.4389 23.6377 15.7402C22.5339 19.5395 19.5396 22.5343 15.7402 23.6376ZM17.6121 18.9685C17.3714 19.6316 17.0952 20.2458 16.7896 20.8016C15.7357 22.7181 14.3778 23.8639 12.9518 24.0646V19.5738C14.6041 19.541 16.1785 19.3286 17.6121 18.9685ZM18.9683 17.6118C19.6314 17.3714 20.2458 17.0955 20.8014 16.7897C22.7183 15.7357 23.8639 14.3779 24.0646 12.9518H19.5739C19.5408 14.6041 19.3283 16.1786 18.9683 17.6118ZM18.6702 12.9518C18.6327 14.755 18.3733 16.4479 17.9433 17.9436C16.4478 18.3731 14.7549 18.6328 12.9518 18.6701V16.7197C13.6243 14.9969 14.9966 13.6244 16.7192 12.9518H18.6702ZM19.5739 12.0482H24.0646C23.8639 10.6221 22.7183 9.26425 20.8014 8.21025C20.2458 7.9045 19.6314 7.62863 18.9683 7.38819C19.3283 8.82144 19.5408 10.3959 19.5739 12.0482ZM17.9433 7.05638C18.3733 8.55213 18.6327 10.245 18.6702 12.0482H16.7193C14.9966 11.3756 13.6243 10.0031 12.9518 8.28031V6.32994C14.7549 6.36725 16.4478 6.62688 17.9433 7.05638ZM18.6683 6.33175C19.6064 6.63069 20.4696 6.99644 21.2371 7.4185C22.1871 7.941 23.0077 8.56112 23.6377 9.25981C22.5339 5.46049 19.5396 2.46577 15.7402 1.36236C16.4389 1.99247 17.0589 2.81287 17.5814 3.76291C18.0033 4.53025 18.3696 5.39349 18.6683 6.33175ZM12.9518 0.935369C14.3778 1.13606 15.7357 2.28193 16.7896 4.19838C17.0952 4.75428 17.3714 5.36841 17.6121 6.03153C16.1785 5.67136 14.6041 5.45901 12.9518 5.42617V0.935369Z" fill="white"/>
</svg>
