<svg width="191" height="34" viewBox="0 0 191 34" fill="none" xmlns="http://www.w3.org/2000/svg">
<g clip-path="url(#clip0_36_1104)">
<path d="M21.875 8.125H21.8875M8.75 2.5H21.25C24.7018 2.5 27.5 5.29822 27.5 8.75V21.25C27.5 24.7018 24.7018 27.5 21.25 27.5H8.75C5.29822 27.5 2.5 24.7018 2.5 21.25V8.75C2.5 5.29822 5.29822 2.5 8.75 2.5ZM20 14.2125C20.1543 15.2528 19.9766 16.3153 19.4922 17.2488C19.0078 18.1823 18.2414 18.9393 17.302 19.4121C16.3626 19.8849 15.2981 20.0495 14.2597 19.8824C13.2214 19.7153 12.2622 19.2251 11.5185 18.4815C10.7749 17.7378 10.2847 16.7786 10.1176 15.7403C9.9505 14.7019 10.1151 13.6374 10.5879 12.698C11.0607 11.7586 11.8177 10.9922 12.7512 10.5078C13.6847 10.0234 14.7472 9.84574 15.7875 10C16.8487 10.1574 17.8311 10.6518 18.5896 11.4104C19.3482 12.1689 19.8426 13.1513 20 14.2125Z" stroke="white" stroke-width="4" stroke-linecap="round" stroke-linejoin="round"/>
</g>
<path d="M46.5852 22.3523C45.3769 22.3523 44.3011 22.1875 43.358 21.858C42.4148 21.5322 41.6174 21.053 40.9659 20.4205C40.3144 19.7917 39.8182 19.0227 39.4773 18.1136C39.1364 17.2045 38.9659 16.1705 38.9659 15.0114C38.9659 13.8674 39.1364 12.8295 39.4773 11.8977C39.822 10.9659 40.3239 10.1667 40.983 9.5C41.642 8.82955 42.447 8.31439 43.3977 7.95455C44.3523 7.5947 45.4394 7.41477 46.6591 7.41477C47.7879 7.41477 48.7955 7.57955 49.6818 7.90909C50.572 8.23864 51.3258 8.70833 51.9432 9.31818C52.5644 9.92424 53.036 10.6458 53.358 11.483C53.6837 12.3163 53.8447 13.2386 53.8409 14.25C53.8447 14.947 53.7841 15.5871 53.6591 16.1705C53.5341 16.7538 53.3371 17.2633 53.0682 17.6989C52.803 18.1307 52.4545 18.4735 52.0227 18.7273C51.5909 18.9773 51.0682 19.1193 50.4545 19.1534C50.0152 19.1875 49.6591 19.1553 49.3864 19.0568C49.1136 18.9583 48.9053 18.8125 48.7614 18.6193C48.6212 18.4223 48.5303 18.1932 48.4886 17.9318H48.4205C48.3295 18.1591 48.1515 18.3655 47.8864 18.5511C47.6212 18.733 47.2973 18.875 46.9148 18.9773C46.536 19.0758 46.1326 19.1117 45.7045 19.0852C45.2576 19.0587 44.8333 18.9545 44.4318 18.7727C44.0341 18.5909 43.6799 18.3277 43.3693 17.983C43.0625 17.6383 42.8201 17.2121 42.642 16.7045C42.4678 16.197 42.3788 15.6098 42.375 14.9432C42.3788 14.2841 42.4716 13.7102 42.6534 13.2216C42.839 12.733 43.0833 12.322 43.3864 11.9886C43.6932 11.6553 44.0341 11.3939 44.4091 11.2045C44.7841 11.0152 45.161 10.8939 45.5398 10.8409C45.9678 10.7765 46.3731 10.7765 46.7557 10.8409C47.1383 10.9053 47.4602 11.0095 47.7216 11.1534C47.9867 11.2973 48.1515 11.4527 48.2159 11.6193H48.2955V10.983H50.0739V16.5284C50.0777 16.7898 50.1364 16.9924 50.25 17.1364C50.3636 17.2803 50.517 17.3523 50.7102 17.3523C50.9716 17.3523 51.1894 17.2367 51.3636 17.0057C51.5417 16.7746 51.6742 16.4205 51.7614 15.9432C51.8523 15.4659 51.8977 14.858 51.8977 14.1193C51.8977 13.4072 51.803 12.7822 51.6136 12.2443C51.428 11.7027 51.1667 11.2424 50.8295 10.8636C50.4962 10.4811 50.108 10.1705 49.6648 9.93182C49.2216 9.69318 48.7405 9.51894 48.2216 9.40909C47.7064 9.29924 47.1761 9.24432 46.6307 9.24432C45.6875 9.24432 44.8636 9.38826 44.1591 9.67614C43.4545 9.96023 42.8674 10.3598 42.3977 10.875C41.928 11.3902 41.5758 11.9943 41.3409 12.6875C41.1098 13.3769 40.9924 14.1288 40.9886 14.9432C40.9924 15.8409 41.1174 16.6364 41.3636 17.3295C41.6136 18.0189 41.9811 18.5985 42.4659 19.0682C42.9508 19.5379 43.5492 19.8939 44.2614 20.1364C44.9735 20.3788 45.7917 20.5 46.7159 20.5C47.1515 20.5 47.5777 20.4678 47.9943 20.4034C48.411 20.3428 48.7879 20.267 49.125 20.1761C49.4621 20.089 49.733 20.0038 49.9375 19.9205L50.5 21.5682C50.2614 21.7045 49.9375 21.8314 49.5284 21.9489C49.1231 22.0701 48.6648 22.1667 48.1534 22.2386C47.6458 22.3144 47.1231 22.3523 46.5852 22.3523ZM46.3239 17.2159C46.786 17.2159 47.1534 17.1269 47.4261 16.9489C47.7027 16.7708 47.8996 16.5076 48.017 16.1591C48.1383 15.8068 48.1951 15.3731 48.1875 14.858C48.1837 14.4034 48.125 14.0189 48.0114 13.7045C47.9015 13.3864 47.7102 13.1458 47.4375 12.983C47.1686 12.8163 46.7936 12.733 46.3125 12.733C45.892 12.733 45.5341 12.822 45.2386 13C44.947 13.178 44.7235 13.428 44.5682 13.75C44.4167 14.0682 44.339 14.4432 44.3352 14.875C44.339 15.2765 44.4034 15.6572 44.5284 16.017C44.6534 16.3731 44.8598 16.6629 45.1477 16.8864C45.4356 17.1061 45.8277 17.2159 46.3239 17.2159ZM55.4503 22.2727V10.2727H57.8366V11.7386H57.9446C58.0507 11.5038 58.2041 11.2652 58.4048 11.0227C58.6094 10.7765 58.8745 10.572 59.2003 10.4091C59.5298 10.2424 59.9389 10.1591 60.4276 10.1591C61.0639 10.1591 61.651 10.3258 62.1889 10.6591C62.7268 10.9886 63.1567 11.4867 63.4787 12.1534C63.8007 12.8163 63.9616 13.6477 63.9616 14.6477C63.9616 15.6212 63.8045 16.4432 63.4901 17.1136C63.1795 17.7803 62.7552 18.286 62.2173 18.6307C61.6832 18.9716 61.0848 19.142 60.4219 19.142C59.9522 19.142 59.5526 19.0644 59.223 18.9091C58.8973 18.7538 58.6302 18.5587 58.4219 18.3239C58.2135 18.0852 58.0545 17.8447 57.9446 17.6023H57.8707V22.2727H55.4503ZM57.8196 14.6364C57.8196 15.1553 57.8916 15.608 58.0355 15.9943C58.1795 16.3807 58.3878 16.6818 58.6605 16.8977C58.9332 17.1098 59.2647 17.2159 59.6548 17.2159C60.0488 17.2159 60.3821 17.108 60.6548 16.892C60.9276 16.6723 61.134 16.3693 61.2741 15.983C61.4181 15.5928 61.4901 15.1439 61.4901 14.6364C61.4901 14.1326 61.42 13.6894 61.2798 13.3068C61.1397 12.9242 60.9332 12.625 60.6605 12.4091C60.3878 12.1932 60.0526 12.0852 59.6548 12.0852C59.2609 12.0852 58.9276 12.1894 58.6548 12.3977C58.3859 12.6061 58.1795 12.9015 58.0355 13.2841C57.8916 13.6667 57.8196 14.1174 57.8196 14.6364ZM70.2173 10.2727V12.0909H64.9616V10.2727H70.2173ZM66.1548 8.18182H68.5753V16.3182C68.5753 16.5417 68.6094 16.7159 68.6776 16.8409C68.7457 16.9621 68.8404 17.0473 68.9616 17.0966C69.0866 17.1458 69.2306 17.1705 69.3935 17.1705C69.5071 17.1705 69.6207 17.161 69.7344 17.142C69.848 17.1193 69.9351 17.1023 69.9957 17.0909L70.3764 18.892C70.2552 18.9299 70.0848 18.9735 69.8651 19.0227C69.6454 19.0758 69.3783 19.108 69.0639 19.1193C68.4806 19.142 67.9692 19.0644 67.5298 18.8864C67.0942 18.7083 66.7552 18.4318 66.5128 18.0568C66.2704 17.6818 66.151 17.2083 66.1548 16.6364V8.18182ZM71.794 22.2727V10.2727H74.1804V11.7386H74.2884C74.3944 11.5038 74.5478 11.2652 74.7486 11.0227C74.9531 10.7765 75.2183 10.572 75.544 10.4091C75.8736 10.2424 76.2827 10.1591 76.7713 10.1591C77.4077 10.1591 77.9948 10.3258 78.5327 10.6591C79.0705 10.9886 79.5005 11.4867 79.8224 12.1534C80.1444 12.8163 80.3054 13.6477 80.3054 14.6477C80.3054 15.6212 80.1482 16.4432 79.8338 17.1136C79.5232 17.7803 79.099 18.286 78.5611 18.6307C78.027 18.9716 77.4285 19.142 76.7656 19.142C76.2959 19.142 75.8963 19.0644 75.5668 18.9091C75.241 18.7538 74.974 18.5587 74.7656 18.3239C74.5573 18.0852 74.3982 17.8447 74.2884 17.6023H74.2145V22.2727H71.794ZM74.1634 14.6364C74.1634 15.1553 74.2353 15.608 74.3793 15.9943C74.5232 16.3807 74.7315 16.6818 75.0043 16.8977C75.277 17.1098 75.6084 17.2159 75.9986 17.2159C76.3925 17.2159 76.7259 17.108 76.9986 16.892C77.2713 16.6723 77.4777 16.3693 77.6179 15.983C77.7618 15.5928 77.8338 15.1439 77.8338 14.6364C77.8338 14.1326 77.7637 13.6894 77.6236 13.3068C77.4834 12.9242 77.277 12.625 77.0043 12.4091C76.7315 12.1932 76.3963 12.0852 75.9986 12.0852C75.6046 12.0852 75.2713 12.1894 74.9986 12.3977C74.7296 12.6061 74.5232 12.9015 74.3793 13.2841C74.2353 13.6667 74.1634 14.1174 74.1634 14.6364ZM84.3395 13.9545V19H81.919V10.2727H84.2259V11.8125H84.3281C84.5213 11.3049 84.8452 10.9034 85.2997 10.608C85.7543 10.3087 86.3054 10.1591 86.9531 10.1591C87.5592 10.1591 88.0876 10.2917 88.5384 10.5568C88.9891 10.822 89.3395 11.2008 89.5895 11.6932C89.8395 12.1818 89.9645 12.7652 89.9645 13.4432V19H87.544V13.875C87.5478 13.3409 87.4115 12.9242 87.1349 12.625C86.8584 12.322 86.4777 12.1705 85.9929 12.1705C85.6671 12.1705 85.3793 12.2405 85.1293 12.3807C84.883 12.5208 84.6899 12.7254 84.5497 12.9943C84.4134 13.2595 84.3433 13.5795 84.3395 13.9545ZM91.6733 16.9545V15.017L96.5312 7.36364H98.2017V10.0455H97.2131L94.1506 14.892V14.983H101.054V16.9545H91.6733ZM97.2585 19V16.3636L97.304 15.5057V7.36364H99.6108V19H97.2585ZM109.381 19V20.8352H101.739V19H109.381ZM111.075 19V10.2727H113.422V11.7955H113.513C113.672 11.2538 113.939 10.8447 114.314 10.5682C114.689 10.2879 115.121 10.1477 115.609 10.1477C115.731 10.1477 115.861 10.1553 116.001 10.1705C116.142 10.1856 116.265 10.2064 116.371 10.233V12.3807C116.257 12.3466 116.1 12.3163 115.899 12.2898C115.698 12.2633 115.515 12.25 115.348 12.25C114.992 12.25 114.674 12.3277 114.393 12.483C114.117 12.6345 113.897 12.8466 113.734 13.1193C113.575 13.392 113.496 13.7064 113.496 14.0625V19H111.075ZM121.193 19.1705C120.295 19.1705 119.523 18.9886 118.875 18.625C118.231 18.2576 117.735 17.7386 117.386 17.0682C117.038 16.3939 116.864 15.5966 116.864 14.6761C116.864 13.7784 117.038 12.9905 117.386 12.3125C117.735 11.6345 118.225 11.1061 118.858 10.7273C119.494 10.3485 120.241 10.1591 121.097 10.1591C121.672 10.1591 122.208 10.2519 122.705 10.4375C123.205 10.6193 123.64 10.8939 124.011 11.2614C124.386 11.6288 124.678 12.0909 124.886 12.6477C125.095 13.2008 125.199 13.8485 125.199 14.5909V15.2557H117.83V13.7557H122.92C122.92 13.4072 122.845 13.0985 122.693 12.8295C122.542 12.5606 122.331 12.3504 122.062 12.1989C121.797 12.0436 121.489 11.9659 121.136 11.9659C120.769 11.9659 120.443 12.0511 120.159 12.2216C119.879 12.3883 119.659 12.6136 119.5 12.8977C119.341 13.178 119.259 13.4905 119.256 13.8352V15.2614C119.256 15.6932 119.335 16.0663 119.494 16.3807C119.657 16.6951 119.886 16.9375 120.182 17.108C120.477 17.2784 120.828 17.3636 121.233 17.3636C121.502 17.3636 121.748 17.3258 121.972 17.25C122.195 17.1742 122.386 17.0606 122.545 16.9091C122.705 16.7576 122.826 16.572 122.909 16.3523L125.148 16.5C125.034 17.0379 124.801 17.5076 124.449 17.9091C124.1 18.3068 123.65 18.6174 123.097 18.8409C122.547 19.0606 121.913 19.1705 121.193 19.1705ZM130.71 22.4545C129.926 22.4545 129.254 22.3466 128.693 22.1307C128.136 21.9186 127.693 21.6288 127.364 21.2614C127.034 20.8939 126.82 20.4811 126.722 20.0227L128.96 19.7216C129.028 19.8958 129.136 20.0587 129.284 20.2102C129.432 20.3617 129.627 20.483 129.869 20.5739C130.116 20.6686 130.415 20.7159 130.767 20.7159C131.294 20.7159 131.727 20.5871 132.068 20.3295C132.413 20.0758 132.585 19.6496 132.585 19.0511V17.4545H132.483C132.377 17.697 132.218 17.9261 132.006 18.142C131.794 18.358 131.521 18.5341 131.188 18.6705C130.854 18.8068 130.456 18.875 129.994 18.875C129.339 18.875 128.742 18.7235 128.205 18.4205C127.67 18.1136 127.244 17.6458 126.926 17.017C126.612 16.3845 126.455 15.5852 126.455 14.6193C126.455 13.6307 126.616 12.8049 126.938 12.142C127.259 11.4792 127.688 10.983 128.222 10.6534C128.759 10.3239 129.348 10.1591 129.989 10.1591C130.477 10.1591 130.886 10.2424 131.216 10.4091C131.545 10.572 131.811 10.7765 132.011 11.0227C132.216 11.2652 132.373 11.5038 132.483 11.7386H132.574V10.2727H134.977V19.0852C134.977 19.8277 134.795 20.4489 134.432 20.9489C134.068 21.4489 133.564 21.8239 132.92 22.0739C132.28 22.3277 131.544 22.4545 130.71 22.4545ZM130.761 17.0568C131.152 17.0568 131.481 16.9602 131.75 16.767C132.023 16.5701 132.231 16.2898 132.375 15.9261C132.523 15.5587 132.597 15.1193 132.597 14.608C132.597 14.0966 132.525 13.6534 132.381 13.2784C132.237 12.8996 132.028 12.6061 131.756 12.3977C131.483 12.1894 131.152 12.0852 130.761 12.0852C130.364 12.0852 130.028 12.1932 129.756 12.4091C129.483 12.6212 129.277 12.9167 129.136 13.2955C128.996 13.6742 128.926 14.1117 128.926 14.608C128.926 15.1117 128.996 15.5473 129.136 15.9148C129.28 16.2784 129.487 16.5606 129.756 16.7614C130.028 16.9583 130.364 17.0568 130.761 17.0568ZM136.903 19V10.2727H139.324V19H136.903ZM138.119 9.14773C137.759 9.14773 137.451 9.02841 137.193 8.78977C136.939 8.54735 136.812 8.25758 136.812 7.92045C136.812 7.58712 136.939 7.30114 137.193 7.0625C137.451 6.82008 137.759 6.69886 138.119 6.69886C138.479 6.69886 138.786 6.82008 139.04 7.0625C139.297 7.30114 139.426 7.58712 139.426 7.92045C139.426 8.25758 139.297 8.54735 139.04 8.78977C138.786 9.02841 138.479 9.14773 138.119 9.14773ZM145.206 19.1705C144.323 19.1705 143.56 18.983 142.916 18.608C142.276 18.2292 141.782 17.7027 141.433 17.0284C141.085 16.3504 140.911 15.5644 140.911 14.6705C140.911 13.7689 141.085 12.9811 141.433 12.3068C141.782 11.6288 142.276 11.1023 142.916 10.7273C143.56 10.3485 144.323 10.1591 145.206 10.1591C146.089 10.1591 146.85 10.3485 147.49 10.7273C148.134 11.1023 148.63 11.6288 148.979 12.3068C149.327 12.9811 149.501 13.7689 149.501 14.6705C149.501 15.5644 149.327 16.3504 148.979 17.0284C148.63 17.7027 148.134 18.2292 147.49 18.608C146.85 18.983 146.089 19.1705 145.206 19.1705ZM145.217 17.2955C145.619 17.2955 145.954 17.1818 146.223 16.9545C146.492 16.7235 146.695 16.4091 146.831 16.0114C146.971 15.6136 147.041 15.161 147.041 14.6534C147.041 14.1458 146.971 13.6932 146.831 13.2955C146.695 12.8977 146.492 12.5833 146.223 12.3523C145.954 12.1212 145.619 12.0057 145.217 12.0057C144.812 12.0057 144.471 12.1212 144.195 12.3523C143.922 12.5833 143.715 12.8977 143.575 13.2955C143.439 13.6932 143.371 14.1458 143.371 14.6534C143.371 15.161 143.439 15.6136 143.575 16.0114C143.715 16.4091 143.922 16.7235 144.195 16.9545C144.471 17.1818 144.812 17.2955 145.217 17.2955ZM153.496 13.9545V19H151.075V10.2727H153.382V11.8125H153.484C153.678 11.3049 154.001 10.9034 154.456 10.608C154.911 10.3087 155.462 10.1591 156.109 10.1591C156.715 10.1591 157.244 10.2917 157.695 10.5568C158.145 10.822 158.496 11.2008 158.746 11.6932C158.996 12.1818 159.121 12.7652 159.121 13.4432V19H156.7V13.875C156.704 13.3409 156.568 12.9242 156.291 12.625C156.015 12.322 155.634 12.1705 155.149 12.1705C154.823 12.1705 154.536 12.2405 154.286 12.3807C154.039 12.5208 153.846 12.7254 153.706 12.9943C153.57 13.2595 153.5 13.5795 153.496 13.9545ZM163.517 19.1648C162.96 19.1648 162.464 19.0682 162.028 18.875C161.593 18.678 161.248 18.3883 160.994 18.0057C160.744 17.6193 160.619 17.1383 160.619 16.5625C160.619 16.0777 160.708 15.6705 160.886 15.3409C161.064 15.0114 161.307 14.7462 161.614 14.5455C161.92 14.3447 162.269 14.1932 162.659 14.0909C163.053 13.9886 163.466 13.9167 163.898 13.875C164.405 13.822 164.814 13.7727 165.125 13.7273C165.436 13.678 165.661 13.6061 165.801 13.5114C165.941 13.4167 166.011 13.2765 166.011 13.0909V13.0568C166.011 12.697 165.898 12.4186 165.67 12.2216C165.447 12.0246 165.129 11.9261 164.716 11.9261C164.28 11.9261 163.934 12.0227 163.676 12.2159C163.419 12.4053 163.248 12.6439 163.165 12.9318L160.926 12.75C161.04 12.2197 161.263 11.7614 161.597 11.375C161.93 10.9848 162.36 10.6856 162.886 10.4773C163.417 10.2652 164.03 10.1591 164.727 10.1591C165.212 10.1591 165.676 10.2159 166.119 10.3295C166.566 10.4432 166.962 10.6193 167.307 10.858C167.655 11.0966 167.93 11.4034 168.131 11.7784C168.331 12.1496 168.432 12.5947 168.432 13.1136V19H166.136V17.7898H166.068C165.928 18.0625 165.741 18.303 165.506 18.5114C165.271 18.7159 164.989 18.8769 164.659 18.9943C164.33 19.108 163.949 19.1648 163.517 19.1648ZM164.21 17.4943C164.566 17.4943 164.881 17.4242 165.153 17.2841C165.426 17.1402 165.64 16.947 165.795 16.7045C165.951 16.4621 166.028 16.1875 166.028 15.8807V14.9545C165.953 15.0038 165.848 15.0492 165.716 15.0909C165.587 15.1288 165.441 15.1648 165.278 15.1989C165.116 15.2292 164.953 15.2576 164.79 15.2841C164.627 15.3068 164.479 15.3277 164.347 15.3466C164.063 15.3883 163.814 15.4545 163.602 15.5455C163.39 15.6364 163.225 15.7595 163.108 15.9148C162.991 16.0663 162.932 16.2557 162.932 16.483C162.932 16.8125 163.051 17.0644 163.29 17.2386C163.532 17.4091 163.839 17.4943 164.21 17.4943ZM172.73 7.36364V19H170.31V7.36364H172.73ZM178.896 19.1591C178.093 19.1591 177.377 19.0114 176.749 18.7159C176.124 18.4205 175.627 18.0133 175.26 17.4943C174.893 16.9754 174.701 16.3807 174.686 15.7102H177.072C177.099 16.161 177.288 16.5265 177.641 16.8068C177.993 17.0871 178.411 17.2273 178.896 17.2273C179.283 17.2273 179.624 17.142 179.919 16.9716C180.218 16.7973 180.451 16.5568 180.618 16.25C180.788 15.9394 180.874 15.5833 180.874 15.1818C180.874 14.7727 180.786 14.4129 180.612 14.1023C180.442 13.7917 180.205 13.5492 179.902 13.375C179.599 13.2008 179.252 13.1117 178.862 13.108C178.521 13.108 178.19 13.178 177.868 13.3182C177.55 13.4583 177.302 13.6496 177.124 13.892L174.936 13.5L175.487 7.36364H182.601V9.375H177.516L177.214 12.2898H177.283C177.487 12.0019 177.796 11.7633 178.209 11.5739C178.622 11.3845 179.084 11.2898 179.595 11.2898C180.296 11.2898 180.921 11.4545 181.47 11.7841C182.019 12.1136 182.453 12.5663 182.771 13.142C183.089 13.714 183.247 14.3731 183.243 15.1193C183.247 15.9034 183.065 16.6004 182.697 17.2102C182.334 17.8163 181.824 18.2936 181.169 18.642C180.518 18.9867 179.76 19.1591 178.896 19.1591Z" fill="white"/>
<defs>
<clipPath id="clip0_36_1104">
<rect width="30" height="30" fill="white"/>
</clipPath>
</defs>
</svg>
